<?xml version="1.0" encoding="UTF-8"?>
<svg version="1.1" xmlns="http://www.w3.org/2000/svg" width="374" height="374">
<path d="M0 0 C0.83146042 -0.00570007 1.66292084 -0.01140015 2.51957703 -0.01727295 C4.27516431 -0.02666984 6.0307688 -0.03323564 7.78637695 -0.03710938 C10.40414522 -0.0467097 13.02109073 -0.07773961 15.63867188 -0.109375 C65.69035671 -0.42365137 111.43882406 21.97416541 146.64550781 56.69091797 C155.2883529 65.38725297 162.42737669 74.96072126 169.13671875 85.203125 C169.57757813 85.8729541 170.0184375 86.5427832 170.47265625 87.23291016 C187.1088303 112.91185306 198.17078766 145.27516238 198.33984375 176.06640625 C198.34554382 176.89786667 198.3512439 177.72932709 198.3571167 178.58598328 C198.36651359 180.34157056 198.37307939 182.09717505 198.37695312 183.8527832 C198.38655345 186.47055147 198.41758336 189.08749698 198.44921875 191.70507812 C198.76349512 241.75676296 176.36567834 287.50523031 141.64892578 322.71191406 C132.95259078 331.35475915 123.37912249 338.49378294 113.13671875 345.203125 C112.46688965 345.64398438 111.79706055 346.08484375 111.10693359 346.5390625 C85.42799069 363.17523655 53.06468137 374.23719391 22.2734375 374.40625 C21.44197708 374.41195007 20.61051666 374.41765015 19.75386047 374.42352295 C17.99827319 374.43291984 16.2426687 374.43948564 14.48706055 374.44335938 C11.86929228 374.4529597 9.25234677 374.48398961 6.63476562 374.515625 C-43.41691921 374.82990137 -89.16538656 352.43208459 -124.37207031 317.71533203 C-133.0149154 309.01899703 -140.15393919 299.44552874 -146.86328125 289.203125 C-147.30414063 288.5332959 -147.745 287.8634668 -148.19921875 287.17333984 C-164.8353928 261.49439694 -175.89735016 229.13108762 -176.06640625 198.33984375 C-176.07210632 197.50838333 -176.0778064 196.67692291 -176.0836792 195.82026672 C-176.09307609 194.06467944 -176.09964189 192.30907495 -176.10351562 190.5534668 C-176.11311595 187.93569853 -176.14414586 185.31875302 -176.17578125 182.70117188 C-176.49005762 132.64948704 -154.09224084 86.90101969 -119.37548828 51.69433594 C-110.67915328 43.05149085 -101.10568499 35.91246706 -90.86328125 29.203125 C-90.19345215 28.76226563 -89.52362305 28.32140625 -88.83349609 27.8671875 C-63.15455319 11.23101345 -30.79124387 0.16905609 0 0 Z " fill="#008FD6" transform="translate(175.86328125,-0.203125)"/>
<path d="M0 0 C4.79673548 2.16216486 7.69946661 5.0093895 10.6875 9.3046875 C10.6875 9.9646875 10.6875 10.6246875 10.6875 11.3046875 C11.3475 11.3046875 12.0075 11.3046875 12.6875 11.3046875 C12.8525 10.6034375 13.0175 9.9021875 13.1875 9.1796875 C15.42890051 4.88366986 18.33756912 2.42334316 22.6875 0.3046875 C28.50168011 -0.80317203 34.2054275 -0.4736135 39.19140625 2.91015625 C44.94029319 8.26877932 47.41807468 15.41783109 47.953125 23.13671875 C47.94796875 24.45027344 47.9428125 25.76382813 47.9375 27.1171875 C47.94523437 29.07591797 47.94523437 29.07591797 47.953125 31.07421875 C47.85737169 33.99058362 47.40815063 36.53963725 46.68608093 39.36038208 C44.99028671 47.67750143 45.4176109 56.1957515 45.44458008 64.64404297 C45.44350589 66.59959476 45.44156518 68.55514624 45.43882751 70.51069641 C45.43399981 75.79742604 45.44160755 81.08407065 45.45178056 86.37079 C45.46058946 91.90890494 45.4588031 97.44701743 45.4584198 102.98513794 C45.45935479 112.27721574 45.46801885 121.56926079 45.48168945 130.86132812 C45.49744094 141.60759391 45.50268651 152.3538239 45.5019539 163.1001004 C45.50127897 174.54612576 45.50821414 185.99213731 45.5174005 197.43815851 C45.51953268 200.73658329 45.52024178 204.03500584 45.52063942 207.33343124 C45.52164262 212.50940196 45.52773737 217.68534255 45.53780556 222.86130333 C45.54072999 224.76244739 45.54195604 226.66359491 45.54137802 228.56474113 C45.54088837 231.15524333 45.54653262 233.74566073 45.55378723 236.33615112 C45.55146433 237.46989034 45.55146433 237.46989034 45.5490945 238.62653339 C45.56477375 242.00601792 45.68347491 245.06704075 46.6875 248.3046875 C47.84387234 259.42750165 47.76996425 270.07136643 40.6875 279.3046875 C35.33627239 283.97173989 31.04929291 285.7977139 23.9609375 285.62109375 C17.87780834 284.77447268 13.68906148 280.6700273 9.6875 276.3046875 C9.29884766 277.20960938 9.29884766 277.20960938 8.90234375 278.1328125 C6.78826054 281.91233104 3.63549406 283.69104857 -0.3125 285.3046875 C-5.65845659 286.18937904 -9.86313528 286.01619382 -14.75 283.6171875 C-19.26018743 279.54701836 -22.97019506 275.46652109 -23.48681641 269.18530273 C-23.54531365 266.70120436 -23.53595223 264.22667574 -23.5 261.7421875 C-23.4990332 260.46698242 -23.4990332 260.46698242 -23.49804688 259.16601562 C-23.45334869 252.83377254 -23.45334869 252.83377254 -22.81093693 250.42061234 C-21.95924399 246.80507316 -22.18326542 243.10128917 -22.19897461 239.40527344 C-22.19875557 238.05840454 -22.19875557 238.05840454 -22.1985321 236.68432617 C-22.19922824 233.71921363 -22.20700671 230.75416406 -22.21484375 227.7890625 C-22.21670899 225.73211705 -22.21813239 223.67517115 -22.21913147 221.6182251 C-22.2229483 216.20624565 -22.23277149 210.79429306 -22.24383545 205.38232422 C-22.25406748 199.85905318 -22.25863293 194.33577779 -22.26367188 188.8125 C-22.27439448 177.9765507 -22.29146093 167.14062134 -22.3125 156.3046875 C-23.26428957 159.46962252 -24.21522312 162.63481415 -25.16601562 165.80004883 C-25.43254944 166.68630196 -25.69908325 167.57255508 -25.97369385 168.48566437 C-32.41044878 189.92088351 -38.44590881 211.45414645 -43.3125 233.3046875 C-43.51746094 234.22233887 -43.72242188 235.13999023 -43.93359375 236.08544922 C-45.75601167 244.36524175 -47.40175891 252.45016591 -47.8125 260.9296875 C-48.16431463 267.56725694 -49.24097162 273.91108069 -53.83984375 278.9921875 C-58.74550362 283.2141735 -62.20087668 283.66462587 -68.48828125 283.57421875 C-73.48954302 283.09691991 -76.51279561 281.38754538 -79.77734375 277.609375 C-85.18338946 269.86854434 -85.36396722 261.36221189 -85.75 252.2421875 C-86.14477738 243.04656631 -87.43951144 234.30570272 -89.3125 225.3046875 C-89.47733887 224.49708984 -89.64217773 223.68949219 -89.81201172 222.85742188 C-92.41470096 210.19308753 -95.39632942 197.61941781 -98.4375 185.0546875 C-98.60744476 184.35158447 -98.77738953 183.64848145 -98.95248413 182.92407227 C-99.44791999 180.8785329 -99.94604812 178.8336705 -100.4453125 176.7890625 C-100.73293457 175.61053711 -101.02055664 174.43201172 -101.31689453 173.21777344 C-102.56399889 168.2242954 -103.9451711 163.26629755 -105.3125 158.3046875 C-105.33564696 169.46587847 -105.35342714 180.62706375 -105.36431217 191.78827381 C-105.36953583 196.97059284 -105.37662414 202.15289548 -105.38793945 207.33520508 C-105.39878664 212.33427276 -105.40478074 217.33332465 -105.40737724 222.33240318 C-105.40922818 224.24182064 -105.41284246 226.15123721 -105.41823006 228.06064796 C-105.42546474 230.73031116 -105.42648991 233.39990869 -105.42602539 236.06958008 C-105.4314183 237.25964661 -105.4314183 237.25964661 -105.43692017 238.47375488 C-105.43085448 241.68489998 -105.33559085 244.23541496 -104.3125 247.3046875 C-104.05699119 250.67508104 -104.08111745 254.05062075 -104.0625 257.4296875 C-104.041875 258.34234375 -104.02125 259.255 -104 260.1953125 C-103.95939959 267.32068443 -104.61517736 273.998292 -109.25 279.6796875 C-110.2709375 280.4840625 -110.2709375 280.4840625 -111.3125 281.3046875 C-112.3334375 282.14 -112.3334375 282.14 -113.375 282.9921875 C-117.87181742 286.03841866 -123.08633279 286.14364512 -128.3125 285.3046875 C-131.37216175 283.70855577 -133.96198344 281.83904334 -136.3125 279.3046875 C-136.3125 278.6446875 -136.3125 277.9846875 -136.3125 277.3046875 C-136.9725 277.3046875 -137.6325 277.3046875 -138.3125 277.3046875 C-138.56902344 277.91828125 -138.82554687 278.531875 -139.08984375 279.1640625 C-141.1722564 282.8099479 -144.43549049 284.00349938 -148.3125 285.3046875 C-153.54811264 286.20119651 -158.12975399 285.76288487 -162.6796875 282.7578125 C-168.49143662 277.58563386 -171.61393583 270.96635907 -172.3125 263.3046875 C-172.949351 250.34615404 -172.949351 250.34615404 -171.31135082 245.09543991 C-170.22887348 240.98731536 -170.03615618 237.21470796 -170.06526184 233.00421143 C-170.06164022 231.79172529 -170.06164022 231.79172529 -170.05794543 230.55474448 C-170.05233414 227.86095702 -170.06095193 225.16740942 -170.06958008 222.47363281 C-170.06850659 220.53660518 -170.06656691 218.59957787 -170.06382751 216.66255188 C-170.05898801 211.41290054 -170.06662282 206.16333446 -170.07678056 200.91369343 C-170.08557186 195.42047029 -170.08380343 189.92724974 -170.0834198 184.434021 C-170.0843557 175.21397476 -170.09303133 165.99396149 -170.10668945 156.77392578 C-170.1224328 146.10665981 -170.12768687 135.43942989 -170.1269539 124.77215314 C-170.12634417 114.51363197 -170.13144343 104.25512256 -170.13974571 93.99660492 C-170.14328057 89.62824156 -170.14510924 85.25988236 -170.14563942 80.89151764 C-170.14664193 75.75334536 -170.15273099 70.61520349 -170.16280556 65.47704124 C-170.16573266 63.58838016 -170.1669555 61.69971558 -170.16637802 59.81105232 C-170.16588921 57.23974529 -170.17152438 54.66852411 -170.17878723 52.097229 C-170.17723863 51.34422555 -170.17569003 50.5912221 -170.1740945 49.81540036 C-170.18867975 46.70386548 -170.32058959 44.28041872 -171.3125 41.3046875 C-172.3783072 28.6017358 -172.58256834 16.69557454 -164.375 6.3671875 C-160.15421015 1.93744765 -157.14965497 0.13838663 -150.9375 -0.1328125 C-144.32601224 0.05405324 -140.74619052 2.05820395 -135.875 6.5546875 C-135.359375 7.1321875 -134.84375 7.7096875 -134.3125 8.3046875 C-133.9721875 7.4075 -133.9721875 7.4075 -133.625 6.4921875 C-131.91249144 3.63800657 -130.28558306 2.78083364 -127.3125 1.3046875 C-124.375 0.90625 -124.375 0.90625 -121.3125 0.9296875 C-120.301875 0.92195313 -119.29125 0.91421875 -118.25 0.90625 C-113.71335761 1.52159245 -111.14265182 3.37966119 -108.125 6.7421875 C-104.58334411 11.74935617 -103.98007496 15.72845971 -103.5625 21.8046875 C-101.77931074 42.53980497 -96.24621633 62.73876251 -90.15185547 82.57177734 C-89.36235774 85.14235254 -88.58613342 87.71641375 -87.81640625 90.29296875 C-86.02251413 96.29747378 -84.22564136 102.3010749 -82.40283203 108.296875 C-76.06656876 129.149585 -70.57850613 150.16087501 -65.3125 171.3046875 C-62.89127007 165.79943286 -60.97151135 160.26212443 -59.359375 154.46875 C-56.89000035 145.86348658 -54.03515436 137.39143542 -51.15234375 128.91796875 C-50.91637293 128.22400309 -50.68040211 127.53003742 -50.43728065 126.8150425 C-48.71295868 121.7474587 -46.98210393 116.68211572 -45.25 111.6171875 C-43.51162678 106.53358627 -41.77568055 101.44917937 -40.04532051 96.36284447 C-39.36358051 94.36261263 -38.67776676 92.36381206 -37.99168396 90.36506653 C-34.18168925 79.17434103 -30.78424473 67.89058131 -28.125 56.3671875 C-27.96064453 55.67818359 -27.79628906 54.98917969 -27.62695312 54.27929688 C-26.06728126 47.60491162 -25.20021261 41.1942393 -25.171875 34.33984375 C-25.15253906 33.04498047 -25.13320312 31.75011719 -25.11328125 30.41601562 C-25.08435917 28.39073441 -25.06249985 26.36656563 -25.06201172 24.34106445 C-25.04810832 16.16090137 -24.98994476 9.58631625 -19.3125 3.3046875 C-13.87301605 -1.87577341 -6.99819038 -2.10418562 0 0 Z " fill="#FCFDFE" transform="translate(249.3125,44.6953125)"/>
<path d="M0 0 C2.6875 0.375 2.6875 0.375 4.82582569 2.31122303 C7.39863823 6.54532765 7.2294421 9.90620243 7.16178894 14.77043152 C7.16585714 16.19579923 7.16585714 16.19579923 7.17000753 17.64996225 C7.17425671 20.83621584 7.14990468 24.02160833 7.12573242 27.20776367 C7.1229673 29.49093992 7.12197819 31.77411892 7.12263489 34.05729675 C7.11950808 40.25955253 7.09185052 46.46148958 7.06014419 52.663656 C7.03144266 59.14629728 7.02613715 65.62895424 7.01863098 72.11164856 C7.00302771 82.99563361 6.97416588 93.87950513 6.93432617 104.76342773 C6.89336234 115.96816931 6.8579563 127.17289894 6.83178711 138.37768555 C6.83017081 139.0682241 6.82855452 139.75876265 6.82688924 140.47022661 C6.8094173 148.0051004 6.79356665 155.53997686 6.77897358 163.07485676 C6.77768575 163.73656363 6.77639792 164.39827051 6.77507106 165.0800291 C6.76865756 168.37819561 6.76231403 171.67636221 6.75609285 174.97452909 C6.74079753 182.70382705 6.71841759 190.43306454 6.69003522 198.16232526 C6.67307223 202.95991588 6.65993066 207.75751221 6.64756584 212.55511665 C6.64087559 214.78767876 6.63242465 217.02023635 6.62212753 219.25278473 C6.60828827 222.28870277 6.60048016 225.32457785 6.59416199 228.36051941 C6.58852067 229.25398313 6.58287935 230.14744686 6.57706708 231.06798524 C6.44525147 235.35666624 6.44525147 235.35666624 7.6875 239.375 C8.25352309 245.9386908 8.25850633 251.71064513 4.6875 257.375 C2 258.3125 2 258.3125 -0.3125 258.375 C-2.69475541 254.80161688 -2.55283109 253.16878986 -2.5 248.9375 C-2.49355469 247.80441406 -2.48710937 246.67132813 -2.48046875 245.50390625 C-2.3125 242.375 -2.3125 242.375 -1.8118906 240.57490921 C-1.15888539 237.69829885 -1.17110023 234.99801163 -1.15428162 232.04754639 C-1.1444928 230.74626801 -1.13470398 229.44498962 -1.12461853 228.10427856 C-1.11871469 226.66424597 -1.11290422 225.224213 -1.10717773 223.78417969 C-1.09759657 222.2663649 -1.08758635 220.74855276 -1.07717896 219.23074341 C-1.05014966 215.11129394 -1.0291294 210.99183303 -1.00917697 206.87234402 C-0.98730524 202.56683203 -0.95992235 198.2613552 -0.93312073 193.95587158 C-0.88320991 185.80326836 -0.83826509 177.65064561 -0.79509836 169.4980042 C-0.74571224 160.2163236 -0.6907992 150.93467829 -0.63541877 141.65303183 C-0.52162344 122.56038711 -0.4149751 103.46770859 -0.3125 84.375 C-6.2525 84.87 -6.2525 84.87 -12.3125 85.375 C-12.55742187 86.2309375 -12.80234375 87.086875 -13.0546875 87.96875 C-15.9976463 98.14920748 -19.13866995 108.26473464 -22.3125 118.375 C-25.49700938 128.52736678 -28.65642856 138.68111814 -31.59619141 148.90771484 C-32.4821357 151.95930075 -33.38820315 155.00472303 -34.29296875 158.05078125 C-48.59272492 203.68702823 -48.59272492 203.68702823 -55.0390625 250.79296875 C-55.3125 253.375 -55.3125 253.375 -57.3125 256.375 C-58.9625 256.045 -60.6125 255.715 -62.3125 255.375 C-64.04509851 249.19539864 -64.81797514 243.2635907 -65.3125 236.875 C-65.48422227 234.89440458 -65.65740512 232.91393526 -65.83203125 230.93359375 C-66.10588095 227.78034957 -66.37465342 224.62691241 -66.63671875 221.47265625 C-68.13496 206.89299678 -71.92739078 192.61108539 -75.3125 178.375 C-75.55436035 177.35631836 -75.7962207 176.33763672 -76.04541016 175.28808594 C-78.27897864 165.95490161 -80.73744192 156.71904672 -83.50610352 147.53051758 C-85.27904767 141.61301048 -86.78545169 135.65164891 -88.22265625 129.64453125 C-89.74236597 123.50718278 -91.56043357 117.44896108 -93.3125 111.375 C-94.02675028 108.87780674 -94.7402935 106.38041113 -95.453125 103.8828125 C-95.80117187 102.66464844 -96.14921875 101.44648438 -96.5078125 100.19140625 C-98.109375 94.5859375 -99.7109375 88.98046875 -101.3125 83.375 C-105.6025 83.045 -109.8925 82.715 -114.3125 82.375 C-114.24357544 83.90346558 -114.17465088 85.43193115 -114.1036377 87.00671387 C-113.39609719 103.46989305 -113.12512456 119.91138161 -113.04210854 136.3884449 C-113.02351257 139.84407038 -112.99926955 143.29965618 -112.97546387 146.75524902 C-112.90621856 156.95158234 -112.84584344 167.14796559 -112.78643799 177.34436035 C-112.73969488 185.34496802 -112.69066899 193.34554857 -112.63495111 201.34609938 C-112.61131016 204.77190696 -112.58972074 208.19770222 -112.57286072 211.62355042 C-112.55358288 215.41378917 -112.5284237 219.20394632 -112.50195312 222.99414062 C-112.4956765 224.68937363 -112.4956765 224.68937363 -112.48927307 226.41885376 C-112.48092941 227.44421234 -112.47258575 228.46957092 -112.46398926 229.52600098 C-112.45883553 230.41955544 -112.45368179 231.31310989 -112.44837189 232.23374176 C-112.44882042 234.42708807 -112.44882042 234.42708807 -111.3125 236.375 C-111.07535472 239.5152818 -111.1273166 242.66423801 -111.125 245.8125 C-111.11275391 246.68455078 -111.10050781 247.55660156 -111.08789062 248.45507812 C-111.08499023 249.71288086 -111.08499023 249.71288086 -111.08203125 250.99609375 C-111.07792236 251.7636499 -111.07381348 252.53120605 -111.06958008 253.32202148 C-111.3125 255.375 -111.3125 255.375 -113.3125 258.375 C-114.9625 258.045 -116.6125 257.715 -118.3125 257.375 C-119.99187565 252.98738219 -120.55991889 249.37751512 -120.5 244.6875 C-120.49355469 243.56988281 -120.48710938 242.45226562 -120.48046875 241.30078125 C-120.3125 238.375 -120.3125 238.375 -119.3125 235.375 C-119.21051204 232.3880368 -119.16641466 229.42408312 -119.16773987 226.43681335 C-119.16421302 225.51151709 -119.16068618 224.58622082 -119.15705246 223.63288528 C-119.14634169 220.51916787 -119.14268035 217.40548103 -119.13891602 214.29174805 C-119.13261257 212.06461456 -119.12584701 209.83748235 -119.11865234 207.61035156 C-119.10396793 202.80747935 -119.09224907 198.00461205 -119.08270454 193.20172691 C-119.06727408 185.60929952 -119.04332517 178.01691409 -119.01780701 170.42451477 C-118.98267929 159.78081868 -118.94958698 149.13712005 -118.91967773 138.4934082 C-118.916827 137.48000942 -118.916827 137.48000942 -118.91391867 136.44613794 C-118.88709496 126.86150354 -118.86321874 117.27686404 -118.84053367 107.69221906 C-118.83893637 107.01752944 -118.83733906 106.34283983 -118.83569336 105.64770508 C-118.83409989 104.97383767 -118.83250643 104.29997026 -118.83086468 103.60568263 C-118.80408953 92.36642911 -118.76957218 81.12721432 -118.72903961 69.88800079 C-118.70224484 62.33881174 -118.68435329 54.78966991 -118.67300236 47.24044263 C-118.66388274 42.5442293 -118.64652381 37.84807336 -118.62682343 33.15189362 C-118.61934381 30.97263045 -118.61526662 28.79335257 -118.61482811 26.61407661 C-118.61374661 23.6406495 -118.60050772 20.66751476 -118.58424377 17.69413757 C-118.58686063 16.83041572 -118.58947748 15.96669386 -118.59217364 15.07679862 C-118.55258826 10.44809487 -118.08382833 6.73126853 -116.3125 2.375 C-113.875 2.75 -113.875 2.75 -111.3125 3.375 C-109.92624088 6.14751824 -110.23503277 8.4491034 -110.1875 11.5625 C-108.95040876 39.58344133 -98.46107917 70.12945282 -89.82080078 96.52246094 C-87.48733849 103.6819779 -85.45282358 110.90009335 -83.52880859 118.1796875 C-82.28660676 122.86613458 -80.97298644 127.51894578 -79.5667572 132.15925598 C-76.70170481 141.66166499 -74.35581592 151.2371436 -72.19995117 160.92333984 C-71.62343626 163.50700794 -71.03391803 166.08747887 -70.44335938 168.66796875 C-67.85674818 180.10774732 -65.3125 191.59669133 -65.3125 203.375 C-61.0225 203.375 -56.7325 203.375 -52.3125 203.375 C-52.14234375 202.12847656 -51.9721875 200.88195312 -51.796875 199.59765625 C-47.31786422 167.71466963 -36.85368218 137.59649347 -26.47595215 107.23950195 C-24.21957311 100.63835517 -21.96884366 94.03529997 -19.72398949 87.43022537 C-18.9516048 85.16177965 -18.17491102 82.89484494 -17.39778137 80.62802124 C-13.39702529 68.90623478 -9.74992838 57.11675802 -7.125 45 C-6.8784668 43.90751953 -6.8784668 43.90751953 -6.62695312 42.79296875 C-4.27565876 32.11219031 -4.01226179 21.5734352 -3.70703125 10.66992188 C-3.66964844 9.49107422 -3.63226563 8.31222656 -3.59375 7.09765625 C-3.56345703 6.02265869 -3.53316406 4.94766113 -3.50195312 3.84008789 C-3.25387127 0.6121465 -3.17053453 0.51414073 0 0 Z " fill="#0792D8" transform="translate(242.3125,57.625)"/>
<path d="M0 0 C1.32 0 2.64 0 4 0 C7.8076221 6.66333867 7.64694824 13.47187507 7 21 C6.66889567 22.05078672 6.33779135 23.10157345 5.99665356 24.18420219 C4.88111472 28.45516538 4.7234803 32.16953731 4.75276184 36.55276489 C4.75034743 37.38826272 4.74793301 38.22376055 4.74544543 39.08457649 C4.73983178 41.87042989 4.74845382 44.65605161 4.75708008 47.44189453 C4.75600663 49.44464174 4.75406702 51.44738865 4.75132751 53.45013428 C4.74648668 58.87966516 4.75412502 64.30911366 4.76428056 69.73863459 C4.77307221 75.42177389 4.77130341 81.1049107 4.7709198 86.78805542 C4.77185585 96.32925798 4.78053255 105.87042871 4.79418945 115.41162109 C4.80992332 126.44466297 4.8151872 137.47767 4.8144539 148.51072228 C4.8138437 159.12483779 4.81894782 169.73894195 4.82724571 180.35305405 C4.83077722 184.87048303 4.83260877 189.38790799 4.83313942 193.90533829 C4.83414348 199.22244544 4.84024529 204.5395233 4.85030556 209.85662079 C4.85322768 211.80894415 4.8544565 213.76127088 4.85387802 215.71359634 C4.85338761 218.37616288 4.85904032 221.0386473 4.86628723 223.70120239 C4.86473863 224.4756168 4.86319003 225.25003121 4.8615945 226.04791272 C4.87864072 229.83441497 5.14554649 233.31273846 6 237 C6.91985784 251.13396957 6.91985784 251.13396957 3 256 C0.3125 256.875 0.3125 256.875 -2 257 C-4.96875201 252.22418154 -6.15177943 248.87956118 -6.1875 243.25 C-6.20167969 242.24453125 -6.21585937 241.2390625 -6.23046875 240.203125 C-6 237 -6 237 -5.00104809 233.83603477 C-3.88203827 229.54796848 -3.72346944 225.8207107 -3.75276184 221.4203186 C-3.75034743 220.58199851 -3.74793301 219.74367842 -3.74544543 218.8799547 C-3.73983177 216.08476565 -3.7484537 213.28980751 -3.75708008 210.49462891 C-3.75600666 208.48539162 -3.7540671 206.47615465 -3.75132751 204.46691895 C-3.7464874 199.02112832 -3.75412313 193.57541984 -3.76428056 188.12963915 C-3.77306858 182.43395107 -3.77130351 176.7382655 -3.7709198 171.04257202 C-3.7718557 161.48458481 -3.78053216 151.9266294 -3.79418945 142.36865234 C-3.80994113 131.30372082 -3.81518659 120.23882405 -3.8144539 109.17388213 C-3.81384467 98.53839549 -3.81893878 87.90292021 -3.82724571 77.26743698 C-3.83078445 72.73553758 -3.83260979 68.2036422 -3.83313942 63.67174149 C-3.83414023 58.34479744 -3.84021525 53.01788283 -3.85030556 47.69094849 C-3.8532382 45.73049474 -3.85445439 43.77003761 -3.85387802 41.80958176 C-3.85339098 39.14561589 -3.85900662 36.48173379 -3.86628723 33.81777954 C-3.86473863 33.03171377 -3.86319003 32.245648 -3.8615945 31.43576205 C-3.55556 27.92512971 -3.55556 27.92512971 -5 25 C-5.18180209 22.27594901 -5.27830455 19.60151705 -5.3125 16.875 C-5.34150391 16.12734375 -5.37050781 15.3796875 -5.40039062 14.609375 C-5.46483857 8.91812612 -4.19805971 5.70842443 -1 1 C-0.67 0.67 -0.34 0.34 0 0 Z " fill="#0C94D8" transform="translate(276,59)"/>
<path d="M0 0 C1.32 0 2.64 0 4 0 C7.8076221 6.66333867 7.64694824 13.47187507 7 21 C6.66889567 22.05078672 6.33779135 23.10157345 5.99665356 24.18420219 C4.88111472 28.45516538 4.7234803 32.16953731 4.75276184 36.55276489 C4.75034743 37.38826272 4.74793301 38.22376055 4.74544543 39.08457649 C4.73983178 41.87042989 4.74845382 44.65605161 4.75708008 47.44189453 C4.75600663 49.44464174 4.75406702 51.44738865 4.75132751 53.45013428 C4.74648668 58.87966516 4.75412502 64.30911366 4.76428056 69.73863459 C4.77307221 75.42177389 4.77130341 81.1049107 4.7709198 86.78805542 C4.77185585 96.32925798 4.78053255 105.87042871 4.79418945 115.41162109 C4.80992332 126.44466297 4.8151872 137.47767 4.8144539 148.51072228 C4.8138437 159.12483779 4.81894782 169.73894195 4.82724571 180.35305405 C4.83077722 184.87048303 4.83260877 189.38790799 4.83313942 193.90533829 C4.83414348 199.22244544 4.84024529 204.5395233 4.85030556 209.85662079 C4.85322768 211.80894415 4.8544565 213.76127088 4.85387802 215.71359634 C4.85338761 218.37616288 4.85904032 221.0386473 4.86628723 223.70120239 C4.86473863 224.4756168 4.86319003 225.25003121 4.8615945 226.04791272 C4.87864072 229.83441497 5.14554649 233.31273846 6 237 C6.91985784 251.13396957 6.91985784 251.13396957 3 256 C0.3125 256.875 0.3125 256.875 -2 257 C-4.96875201 252.22418154 -6.15177943 248.87956118 -6.1875 243.25 C-6.20167969 242.24453125 -6.21585937 241.2390625 -6.23046875 240.203125 C-6 237 -6 237 -5.00104809 233.83603477 C-3.88203827 229.54796848 -3.72346944 225.8207107 -3.75276184 221.4203186 C-3.75034743 220.58199851 -3.74793301 219.74367842 -3.74544543 218.8799547 C-3.73983177 216.08476565 -3.7484537 213.28980751 -3.75708008 210.49462891 C-3.75600666 208.48539162 -3.7540671 206.47615465 -3.75132751 204.46691895 C-3.7464874 199.02112832 -3.75412313 193.57541984 -3.76428056 188.12963915 C-3.77306858 182.43395107 -3.77130351 176.7382655 -3.7709198 171.04257202 C-3.7718557 161.48458481 -3.78053216 151.9266294 -3.79418945 142.36865234 C-3.80994113 131.30372082 -3.81518659 120.23882405 -3.8144539 109.17388213 C-3.81384467 98.53839549 -3.81893878 87.90292021 -3.82724571 77.26743698 C-3.83078445 72.73553758 -3.83260979 68.2036422 -3.83313942 63.67174149 C-3.83414023 58.34479744 -3.84021525 53.01788283 -3.85030556 47.69094849 C-3.8532382 45.73049474 -3.85445439 43.77003761 -3.85387802 41.80958176 C-3.85339098 39.14561589 -3.85900662 36.48173379 -3.86628723 33.81777954 C-3.86473863 33.03171377 -3.86319003 32.245648 -3.8615945 31.43576205 C-3.55556 27.92512971 -3.55556 27.92512971 -5 25 C-5.18180209 22.27594901 -5.27830455 19.60151705 -5.3125 16.875 C-5.34150391 16.12734375 -5.37050781 15.3796875 -5.40039062 14.609375 C-5.46483857 8.91812612 -4.19805971 5.70842443 -1 1 C-0.67 0.67 -0.34 0.34 0 0 Z " fill="#0C94D9" transform="translate(97,59)"/>
</svg>
